            <svg class="h-16 w-auto lg:h-20" width="787.288" height="610.687" viewBox="0 0 208.303 161.577"
                xmlns="http://www.w3.org/2000/svg">
                <path
                    d="M63.306 6.539c-.999-.68-2.116-.329-2.538.821-.53 1.442-.12 2.964-.09 4.435-.272-.034-.547-.1-.822-.054-.758.128-1.172.905-1.224 1.615-.102 1.38.634 2.558 1.142 3.778-1.792-1.262-3.236-3.257-4.846-4.756-3.65-3.401-7.467-6.698-11.58-9.533-.665-.458-1.953-1.61-2.793-1.528-.912.09-1.223 1.173-1.232 1.936-.02 1.73.384 3.463 1.478 4.846-2.779 1.323-.853 5.284.212 7.146.255.446.52.882.799 1.314.161.25.493.6.515.904.025.344-.38.757-.513 1.068-.23.533-.27 1.238-.15 1.807.482 2.268 2.699 3.997 4.476 5.268.698.5 1.426 1.044 2.217 1.385-.315.453-.73.837-.86 1.396-.258 1.118.309 2.123.993 2.957 1.432 1.746 3.726 2.739 5.781 3.532-.633 1.13-.179 2.219.74 3.023 1.264 1.11 3.231 1.454 4.845 1.658-.153.48-.427 1.167-.103 1.634.557.802 3.038.494 3.882.338-.985.964-2.016 1.85-2.943 2.874-4.789 5.293-8.555 11.304-14.799 15.097-4.35 2.643-9.336 3.792-13.963 5.837-8.075 3.568-16.07 8.486-21.906 15.206-2.921 3.364-5.386 7.16-7.147 11.253a35.75 35.75 0 0 0-2.592 9.446c-.33 2.53-.394 5.103-.083 7.638 2.426 19.751 20.434 32.754 37.478 40.047 13.486 5.772 27.789 9.157 42.3 11.065 9.022 1.186 18.178 1.762 27.269 1.538 25.055-.613 50.472-5.066 72.526-17.648 14.545-8.297 29.288-22.606 28.498-40.67-.099-2.25-.565-4.485-1.16-6.652-.834-3.043-2.284-5.98-3.986-8.625-2.843-4.414-6.503-8.225-10.539-11.56-2.877-2.377-5.951-4.49-9.117-6.462-1.627-1.013-3.322-2.18-5.092-2.922.756.915 2.094 1.543 3.039 2.271a96.03 96.03 0 0 1 5.831 4.889c6.033 5.458 11.349 12.632 13.853 20.437.918 2.861 1.536 5.867 1.668 8.871.753 17.205-13.296 30.78-27.266 38.533-2.86 1.587-5.817 3.007-8.789 4.368-27.856 12.754-59.78 15.01-89.774 10.358-15.584-2.417-30.943-6.638-44.764-14.397-14.46-8.118-29.266-23.084-27.338-41.08a31.28 31.28 0 0 1 1.797-7.556 34.558 34.558 0 0 1 4.915-8.87c3.64-4.773 8.268-8.52 13.233-11.828 3.242-2.16 6.707-3.949 10.185-5.688 1.766-.883 3.69-2.062 5.585-2.608v.082c-2.24 1.116-4.18 3.336-5.915 5.093-5.05 5.116-8.644 11.412-10.601 18.316-.429 1.512-.61 3.061-.896 4.6h.082c.949-2.144 1.261-4.662 2.71-6.571.352-.464.707-1.128 1.232-1.397.084-.717.473-1.467.74-2.135.986-2.475 2.6-4.554 4.318-6.571 5.822-6.834 13.672-11.83 22.047-14.953 2.241-.835 4.504-1.593 6.817-2.204.906-.24 2.018-.74 2.957-.584v-.083h-.164v-.082l.41.082c0-.234.14-.137.33-.082 0-.234.138-.137.328-.082 2.381-.787-1.562-.537-2.218-.467-1.023.121-2.263.984-2.957-.19-.575.236-1.807.826-2.217.082-.544.106-1.066.304-1.479-.164-.67.16-1.652-.02-1.69-.904-.02-.447.398-.681.518-1.067.067-.216-.057-.436-.023-.657.077-.51.527-.96.867-1.315v-.082c-.238-.611.564-.976.903-1.396-.557-.17-.251-.655.027-.984.596-.706 1.355-1.246 1.927-1.973 1.53-1.944 2.898-3.86 4.7-5.582 1.015-.971 2.28-1.669 3.285-2.632-.757-.403-3.386-1.622-1.89-2.628-.282-.179-.61-.272-.903-.438-.787-.449-2.135-2.055-.821-2.683v-.082c-.982-.459-1.941-1.215-2.399-2.218-.317-.694-.198-1.406.592-1.643v-.082c-.955-.412-1.726-1.306-2.036-2.3-.239-.768.074-1.52.968-1.396-.438-.621-1.035-1.067-1.307-1.807-.416-1.135.049-1.875 1.225-1.56-.6-.879-1.199-1.751-.89-2.875.139-.509.515-1.127 1.136-.928.541.174.929.788 1.314 1.174 1.002 1.003 2.02 1.989 2.971 3.04 3.383 3.738 6.89 7.39 9.842 11.498 2.845-1.035 5.029-3.637 6.522-6.16.934-1.578 1.445-3.184 2.924-4.397 1.955-1.603 4.868-2.036 6.728-.038.668.719.9 1.576 1.24 2.464-.552-.044-1.378-.169-1.772-.598-.384-.418-.363-.945-.94-1.235a1.484 1.484 0 0 0-.738-.135c-2.536.115-.81 4.204 1.05 2.433.249-.237.369-.546.428-.876l3.86 1.64 6.407 1.814 6.489 3.117v.082c-2.723-1.271-5.397-2.43-8.296-3.261-1.351-.388-3.018-.88-4.435-.75-1.963.181-3.838 1.302-5.172 2.697-.704.737-1.261 1.632-1.706 2.546-1.97 4.04-1.74 8.816-3.471 12.978.66-.547 1.04-1.464 1.416-2.218.942-1.888 1.35-4.009 1.67-6.078.204-1.314.326-2.718.882-3.943.43-.945 1.083-1.87 1.788-2.628 1.081-1.162 2.584-2.465 4.182-2.831 1.16-.266 2.715.204 3.86.433 3.776.755 7.003 2.415 10.514 3.877-.726-.987-2.141-1.704-3.203-2.281-2.462-1.34-5.063-2.394-7.721-3.277-.996-.331-2.39-.467-3.275-1.025-.5-.315-.696-1.442-.985-1.96a6.54 6.54 0 0 0-2.558-2.52c-1.663-.908-3.813-.922-5.503-.078-3.252 1.627-3.615 5.227-5.684 7.855-.814 1.033-1.996 2.223-3.35 2.464-.2-2.508-.892-5.146-1.596-7.556-.264-.904-.713-1.794-.908-2.71-.378-1.77-.42-3.634-.8-5.422-.742-3.494-1.85-6.905-3.046-10.267-.683-1.917-1.39-3.827-2.057-5.75-.175-.503-.381-1.841-.816-2.139-.72-.493-1.524.56-1.829 1.072-.904 1.516-1.408 3.587-1.187 5.339m-2.546 5.256-.082.083.082-.083m13.552 21.602c-.837-.602-1.499-1.6-2.17-2.382-1.063-1.238-2.197-2.427-3.224-3.696-.334-.413-1.111-2.229-.027-2.135-.493-.58-1.128-2.088-.082-2.464-.481-.848-.573-2.05.657-2.054-.221-.381-.464-.86-.341-1.314.158-.583 1.003-1.003 1.523-.587 1.306 1.045 1.135 3.648 1.383 5.104.165.971 1.05 1.976 1.362 2.957.667 2.093.826 4.392.92 6.571M68.808 22.72l.082.082-.082-.082m19.938 3.98c.236.078.119.47-.12.352-.197-.097-.103-.427.12-.352m18.091 7.436-.246-.082.246.082m-43.203 24.23.082.083-.082-.082m-.329.082.082.082-.082-.082m-.246.082.082.082-.082-.082m-.329.082.082.082-.082-.082m-.246.082.082.082-.082-.082m-.329.082.082.082-.082-.082m-.246.082.082.083-.082-.083m-.247.083.083.082-.083-.082m-.273.109.054.027-.054-.027m-.302.055.083.082-.083-.082m-.246.082.082.082-.082-.082m-.246.082.082.082-.082-.082m-.247.082.082.082-.082-.082m-.246.082.082.082-.082-.082m-.247.082.083.083-.083-.083m-.246.083.082.082-.082-.082m-.246.082.082.082-.082-.082m-.247.082.082.082-.082-.082m-.246.082.082.082-.082-.082m-.247.082.083.082-.083-.082m-.246.082.082.082-.082-.082m-.246.082.082.083-.082-.083m-.165.083.082.082-.082-.082m-.246.082.082.082-.082-.082m-.247.082.083.082-.083-.082m-.41.164.082.082-.082-.082m-.247.082.083.082-.083-.082m-.164.082.082.083-.082-.083m-.246.083.082.082-.082-.082m-.411.164.082.082-.082-.082m-.246.082.082.082-.082-.082m-.165.082.083.082-.083-.082m-.246.082.082.082-.082-.082m-.164.082.082.082-.082-.082m-.247.082.082.083-.082-.083m-.164.083.082.082-.082-.082m-.41.164.081.082-.082-.082m-.164.082.082.082-.082-.082m-.246.082.082.082-.082-.082m-.165.082.083.082-.083-.082m-.164.082.082.083-.082-.083m-.41.165.082.082-.083-.082m-.164.082.082.082-.082-.082m-.164.082.082.082-.082-.082m-.575.246.082.083-.082-.083m-.164.083.082.082-.082-.082m-.165.082.083.082-.083-.082m-.164.082.082.082-.082-.082m-.41.164.082.082-.083-.082m-.328.164.082.082-.082-.082m-.164.082.082.083-.082-.083m-.165.083.082.082-.082-.082m-.164.082.082.082-.082-.082m-.164.082.082.082-.082-.082m-.164.082.082.082-.082-.082m-.165.082.082.082-.082-.082m-.164.082.082.082-.082-.082m-.164.082.082.083-.082-.083m-.165.083.083.082-.083-.082m-.903.492.082.083-.082-.083m-.164.083.082.082-.082-.082m-.165.082.083.082-.083-.082m-7.556.082-.247.164v-.082l.247-.082m7.392 0 .082.082-.082-.082m-.41.246.082.082-.083-.082m-.164.082.082.082-.082-.082m-.164.082.082.083-.082-.083m-.41.247.081.082-.082-.082m-.41.246.082.082-.082-.082m-.165.082.082.083-.082-.083m-.246.165.082.082-.082-.082m-.164.082.082.082-.082-.082m-.247.164.082.082-.082-.082m-.164.082.082.082-.082-.082m-.246.165.082.082-.082-.082m-.411.246.082.082-.082-.082m-.247.164.083.082-.083-.082m-.246.164.082.083-.082-.083m-.246.165.082.082-.082-.082m-.657.41-.083.165.083-.165m-.329.247.082.082-.082-.082m-.246.164.082.082-.082-.082m-.247.164.082.083-.082-.083m80.658 0c-1.551.459-3.72.083-5.34.083h-11.416c-.141 1.887-1.194 3.962-1.732 5.78a597.095 597.095 0 0 1-3.474 11.314c-.452 1.419-.869 2.849-1.314 4.27-.184.59-.626 1.433-.544 2.044-.25.178-.38.776-.328 1.068-.25.177-.381.776-.329 1.068-.259.182-.386.771-.328 1.068-.349.246-.385 1.01-.524 1.407-.492 1.404-.822 2.866-1.315 4.27-1.848 5.273-3.274 10.649-3.172 16.253.027 1.487.391 3.044.937 4.425.16.407.317 1.1.706 1.324l-.082.165c1.176 1.296 1.801 3.09 2.98 4.435 2.545 2.901 6.328 4.498 10.08 5.032 1.154.165 2.45.297 3.613.217.307-.02.94.02 1.19-.159.3-.212.401-.973.5-1.312.338-1.154.718-2.295 1.055-3.45a546.19 546.19 0 0 1 3.99-12.977l-1.56-.082.493-1.56c-1.861 0-3.155-.45-4.846-1.15.153-.558-.033-1.222.007-1.808.072-1.053.301-2.099.557-3.12.105-.42.162-1.2.481-1.512.35-.343 1.53-.131 1.993-.131h5.504c1.406-6.08 3.798-11.983 5.503-17.988h-1.479l.41-1.643h-5.913l3.591-11.745 1.173-3.943h-1.478l.41-1.643m-80.904.165-.082.164.082-.164m-.328.246.082.082-.082-.082m-.247.164-.082.165.082-.165m-.328.247.082.082-.082-.082m-.329.246-.082.164.082-.164m-.328.247-.082.164.082-.164m-.41.328.081.082-.082-.082m-.328.247-.083.164.083-.164m80.657.164c-.945 4.084-2.45 8.16-3.724 12.156-.41 1.286-1.573 3.422-.45 4.591.567.59 1.363.583 2.12.583h4.19c-.18 1.217-.702 2.442-1.066 3.614-1.047 3.37-2.409 6.814-3.123 10.267h-4.682c-.839 0-1.757-.085-2.464.455-.914.696-1.127 1.854-1.386 2.913-.606 2.484-1.246 5.715.52 7.885 1.097 1.347 2.61 1.566 4.151 2.053l-4.27 13.964c-2.034 0-4.055-.167-5.997-.822-1.465-.495-2.863-1.18-4.107-2.105-.933-.694-1.785-1.486-2.492-2.412-5.246-6.873-1.314-16.152.873-23.409.545-1.81 1.136-3.607 1.667-5.42.797-2.721 1.655-5.425 2.496-8.132 1.224-3.939 2.45-7.879 3.64-11.828.313-1.042.637-2.082.96-3.121.1-.325.157-.939.455-1.148.234-.164.673-.084.944-.084H120.883m-81.068.164-.082.164.082-.164m138.317 3.532c.334-.116.296.664.45.85.572.694 2.066 1.126 2.178 2.107h.082v-.41h.082c.214.436.671.604.937.992.33.486.168.825.788 1.143v-.493l.601 1.115 2.33 2.335.601 1.232v-.575l.74 1.396.492.657c-.166.562-.06 1.032.41 1.396l.083-.575h.164c-.134 1.54 1.204 2.162 1.679 3.532.211.611-.204 1.207.457 1.643l.082-.74h.082c.1.423-.048.823.034 1.233.069.349.322.624.36.985.035.339-.16.65-.075.986.408 1.616 1.292 2.61.83 4.353.366-.278.247-.897.247-1.314h.082c.443 1.656-.195 3.615-.164 5.339h.082l.329-1.479h.082l-.321 2.3v3.484l-.42 1.609-.246-.082c.04 1.037-.463 2.266-.684 3.285-1.258 5.81-5.49 10.702-9.22 15.155-.664.794-1.448 1.492-2.097 2.282-.95 1.155-1.867 2.495-3.194 3.261l.575-.575.986-1.232c-.657.302-1.697 1.052-1.807 1.807-1.06.16-1.483 1.435-2.3 2.02-1.743 1.245-3.558 2.444-5.42 3.506-.665.38-1.33.878-2.054 1.127v.329h-.247c-.116.74-1.306 1.042-1.889 1.396v-.328l-.821.246.246.082-.493.493v-.493l-.82.493.163.329v.082c-.695.133-1.405.586-2.053.878-1.79.807-3.667 1.87-5.585 2.325v.082l.657.329-.329-.083-.41.247v-.493l-.329.082v.41c-.597 0-1.666-.14-1.89.576h.494v.082l-2.054.234-3.12.998v.082h1.15v.082l-4.354 1.232v.082h1.314v.082l-3.45.904v-.493l-3.285.821v.082h1.478v.083l-6.242 1.375-11.663 1.828v.082h2.3v.082l-3.45.329c.378.385 1.054.246 1.56.246v.082l-4.517.247v.082h.328v.082l-1.067.082v-.41l-6.243.41v.164l2.464.082v.082c-4.88 0-9.743.43-14.62.25-1.856-.068-3.936.182-5.75-.25v.082l1.808.493-1.89-.155-.985-.338v.247l-1.068-.247-.246.247c-.09-.418-.697-.491-1.068-.493v.246h.493v.165h-.575v-.411l-2.136-.164v.164l1.725.246v.082c-2.085-.006-4.539-.171-6.57-.657l.656.575-2.3-.328v-.247h-.574v-.246l-3.779-.575.822.575-3.28-.545-1.73-.358h-.656v-.247l-.904.082c.113-.508-.307-.684-.657-.328.274.02.483.05.575.328l-2.546-.614-5.914-1.357.082.41-1.56-.492v-.082l.164-.165-3.86-1.15v.33l.492.245-7.556-2.464v.493c-.756-.23-5.104-1.836-2.464-.821l.41.164c.352.463 1.306.555 1.832.787 1.997.885 4.144 1.467 6.218 2.143 8.39 2.735 17.14 4.251 25.872 5.389 25.429 3.312 52.516 1.057 76.551-8.252 11.338-4.392 22.573-10.621 30.52-20.026 7.43-8.793 11.184-20.89 6.98-32.033-1.712-4.545-4.522-8.566-7.753-12.156-2.204-2.45-4.692-4.698-7.324-6.684-.765-.577-1.912-1.82-2.875-1.94-.255-.427-.813-.862-1.314-.904M39.322 70.522l-.082.164.082-.164m-.493.41-.164.247.164-.246m-.657.575-.164.246.164-.246m-.821.739-.575.657.575-.657m139.631 0c-.09.09-.09.09 0 0M35.544 74.054l-.575.657.575-.657m-1.068 1.15-.246.328.246-.328m-.739.821.082.082-.082-.082m-.41.493.081.082-.082-.082m-.41.493.082.082-.082-.082m-.247.328.082.082-.082-.082m-.328.411.082.082-.082-.082m-.247.329.082.082-.082-.082m-.246.328.082.082-.082-.082m-.164.247.082.082-.082-.082m-.247.328.082.082-.082-.082m-.164.246.082.083-.082-.083m-.164.247.082.082-.082-.082m-.657.986.082.082-.082-.082m-.165.246.082.082-.082-.082m-.246.41.082.083-.082-.082m-.164.246.082.082-.082-.082m-.247.41.082.083-.082-.082m-.082.164.082.082-.082-.082m-.246.41.082.083-.082-.082m-.082.164.082.082-.082-.082m-.329.575.082.082-.082-.082m-.082.164.082.082-.082-.082m-.082.164.082.083-.082-.083m-.082.165.082.082-.082-.082m36.14 2.382-2.465 1.232-3.203 2.135-1.725 1.15-2.546 2.382c-.516.101-1.87 1.455-1.971 1.971-.751.366-1.394 1.385-1.886 2.052-1.132 1.533-2.19 3.067-3.057 4.766-.355.694-.907 1.428-.971 2.217l-.164-.082-.575 1.89c-.68.546-.893 2.522-1.098 3.367-.766 3.138-.932 6.356-.28 9.528.166.811.498 2.647 1.213 3.12l.247.494c-.001.547.459 1.031.746 1.475.629.971 1.15 1.968 1.882 2.878 3.234 4.018 8.38 5.667 13.388 5.667 1.08 0 2.132 0 3.204-.141.338-.044.831-.014 1.127-.202.313-.199.381-.804.487-1.135.348-1.09.686-2.187 1.002-3.286.855-2.97 1.807-5.918 2.725-8.87.41-1.324 1.109-2.809 1.23-4.19l-1.643.658.657-2.3c-1.866.539-3.334 1.344-5.361 1.066-.793-.108-1.476-.754-2.196-.82l-.246-.328c.191-.884-.09-1.853.117-2.793.626-2.84 2.73-5.19 5.304-6.468 1.502-.747 3.204-1.074 4.846-.625.89.243 1.672.714 1.81 1.676.401 2.788-.91 5.6-1.697 8.209-1.135 3.763-2.249 7.535-3.416 11.288-.653 2.102-1.585 4.278-1.954 6.454h1.397l-.411 1.643H86.14c.608-2.655 1.571-5.284 2.38-7.885 1.205-3.88 2.33-7.784 3.536-11.663 1.09-3.51 2.416-7.209 2.462-10.925.033-2.692-.044-5.272-1.127-7.802-.24-.559-.697-2.004-1.337-2.136l.082-.246-1.397-1.89.082-.164c-.533-.481-1.08-1.583-1.806-1.725-.814-1.523-3.499-2.365-5.012-2.905-4.018-1.433-9.16-1.583-13.305-.59-1.316.315-2.603.658-3.884 1.101-.639.222-1.357.703-2.03.752m-36.222-2.218.083.082-.083-.082m-.082.164.082.082-.082-.082m-.082.165.082.082-.082-.082m-.082.164.082.082-.082-.082m-.082.164.082.082-.082-.082m159.59.082v.164h-.164v-.164h.164m-159.672.082.082.082-.082-.082m159.836.082-.082.083.082-.083m-159.918.083.082.082-.082-.082m116.797 2.217v.165l-.329.164-.657.328c-.544.037-1.134.519-1.588.817-1.181.776-2.326 1.582-3.374 2.534-1.345 1.22-2.674 2.496-3.658 4.042-2.467 3.876-3.404 8.427-5.477 12.477a11.206 11.206 0 0 1-2.364 3.097c-.443.408-1.2.6-1.526 1.1l-1.479.41-2.71.434-1.57.107-.46 1.324-1.009 3.275-2.606 8.47-1.42 4.788h1.397l-.41 1.643c4.057 0 8.129-.095 12.074-1.162 6.413-1.735 11.864-6.154 15.603-11.569a41.155 41.155 0 0 0 3.71-6.653c.825-1.851 1.467-3.817 2.62-5.503.954-1.396 2.19-2.343 3.857-2.71.616-.135 1.258-.244 1.89-.247.277-.001.707.078.928-.131.316-.302.42-1.1.538-1.512.325-1.127.703-2.24 1.032-3.367.829-2.83 1.722-5.645 2.596-8.46.445-1.431 1.112-2.95 1.312-4.436h-1.478l.492-1.642c-3.752 0-7.406-.092-11.102.618-1.11.213-2.217.578-3.271.978-.504.19-1.034.534-1.561.621m-116.88-2.053.083.082-.082-.082m-.986.082.082.082-.082-.082m-.082.246.082.083-.082-.083m43.943 43.204c1.54-4.735 2.913-9.53 4.37-14.292.838-2.74 2.186-5.72 2.2-8.624.006-1.236-.175-2.508-.765-3.614-1.734-3.25-6.026-3.573-9.09-2.192-3.267 1.472-5.954 4.213-6.947 7.695-.923 3.234.042 6.782 3.414 8.07 1.358.518 2.706.312 4.107.308-.135.922-.525 1.818-.786 2.71-.628 2.144-1.344 4.263-1.972 6.407-.241.824-.503 1.642-.75 2.464-.09.297-.164.801-.399 1.019-.223.207-.658.129-.939.166-1.027.135-2.095.045-3.121-.028-4.989-.35-9.487-2.53-12.039-6.988-3.02-5.277-1.72-11.878.552-17.167 4.482-10.434 15.724-18.809 27.257-18.809 3.187 0 6.595.374 9.446 1.915 1.016.549 1.977 1.202 2.791 2.027 6.255 6.345 2.495 16.283.193 23.491a166.16 166.16 0 0 0-1.47 4.846c-.732 2.559-1.587 5.082-2.324 7.639-.198.688-.42 1.367-.621 2.053-.07.24-.128.663-.34.82-.227.166-.675.084-.94.084H70.863M27.659 85.635l.082.082-.082-.082m-.903.164.082.083-.082-.083m.82 0 .083.083-.082-.083m-.904.247.083.082-.083-.082m.74.164.082.082-.082-.082m-.083.164.083.082-.083-.082m130.843.329c-.191 1.295-.759 2.61-1.147 3.86-.647 2.078-1.247 4.173-1.92 6.243a80.628 80.628 0 0 0-.782 2.546c-.1.344-.175.91-.416 1.183-.214.242-.7.21-.992.263-.703.128-1.384.307-2.053.56-1.638.618-2.883 1.824-3.858 3.25-2.314 3.388-3.326 7.534-5.562 11.007-3.065 4.76-7.467 9.026-12.839 11.053-3.623 1.367-7.492 1.76-11.335 1.76.192-1.295.76-2.61 1.148-3.86.672-2.161 1.344-4.322 1.997-6.49l.775-2.545c.082-.272.157-.807.397-.984.237-.174.738-.092 1.022-.132.835-.113 1.653-.248 2.464-.48 2.22-.637 3.995-2.07 5.349-3.908 2.954-4.013 3.6-9.3 6.167-13.552 2.907-4.815 8.429-8.173 13.864-9.281 2.556-.521 5.126-.493 7.721-.493m-131.746.246.082.082-.082-.082m-.082.329.082.082-.082-.082m-.082.328.082.083-.082-.083m-.082.411.082.082-.082-.082m-.083.329.083.082-.083-.082m164.026.492.164.329c-.217-.047-.275-.13-.164-.329m-97.906 2.875-.082.082.082-.082m.082.164-.082.083.082-.083m.082.165-.082.082.082-.082m.082.246-.082.082.082-.082m.082.164-.082.083.082-.083m.165.493-.082.082.082-.082m.082.164.082.411h-.082v-.41m.164.574-.082.083.082-.083m.055.302-.028.054.028-.054m.082.328-.028.055.028-.055m.11.356-.083.082.083-.082m.082.329v.246h-.082l.082-.246m.082.492v.247h-.082l.082-.247m.082.575v.247h-.082l.082-.247m.082.74v.41h-.082l.082-.41m0 3.039v.492h-.082l.082-.492m-22.423.985-.082.082.082-.082m22.34 0v.329h-.081l.082-.329m-23.08.082v.082h-.329l.329-.082m1.396.027c.064 0 .013.041-.027.028l.027-.028m-2.218.055-.082.083.082-.083m.165.028.027.027c-.04.014-.09-.027-.027-.027m2.628 0 .027.027c-.04.014-.09-.027-.027-.027m-3.039.082c.063 0 .013.04-.027.028l.027-.028m3.368-.027-.083.082.083-.082m-3.614.082-.083.082.083-.082m3.86 0-.082.082.082-.082m-4.107.082-.082.082.082-.082m4.353 0-.082.082.082-.082m-4.6.082-.081.082.082-.082m4.764 0-.083.082.083-.082m-5.01.082-.083.082.082-.082m5.175 0-.082.082.082-.082m-5.339.082-.082.082.082-.082m-.164.082-.082.082.082-.082m25.38 0-.082.082.082-.082m-19.384.164-.082.083.082-.083m19.384 0-.082.083.082-.083m-26.037.165-.082.082.082-.082m-.165.082-.082.082.082-.082m-.246.164-.082.082.082-.082m26.339.137-.028.054.028-.054m-18.618.11-.082.082.082-.083m-8.214.083-.082.082.082-.082m8.35.137-.027.054.028-.054m-8.597.027-.082.082.082-.082m26.995.137-.028.054.028-.054m-27.406.191-.082.082.082-.082m-.328.247-.083.082.083-.082m27.652.055-.028.054.028-.054m-17.96.027.082.246h-.082v-.246m-9.857.082-.328.329.328-.329m27.735.301-.028.055.028-.055m-28.31.274-.246.246.246-.246m28.255.164-.082.082.082-.082m-28.583.164-.082.083.082-.083m28.501.165-.082.082.082-.082m-28.748.082-.164.246.164-.246m28.639.301-.028.055.028-.055m-28.885.11-.164.164.164-.164m28.803.219-.028.054.028-.054m-29.05.11-.082.081.083-.082m-.165.246-.082.247h-.082l.164-.247m29.159 0-.083.083.083-.083m-.11.302-.028.054.028-.054m-29.213.027-.082.082.082-.082m29.131.301-.028.055.028-.055m-.055.274-.082.082.082-.082m-29.405.082-.082.082.082-.082m-.082.164-.082.082.082-.082m29.378.055-.028.055.028-.055m99.083.027-.082.083.082-.083m-128.543.165-.082.082.082-.082m29.405.082-.082.082.082-.082m-29.679.63-.027.054.027-.054m29.515-.055-.083.082.083-.082m-.083.246-.082.082.082-.082m-29.514.137-.027.055.027-.055m29.432.11-.082.082.082-.082m-29.514.219-.027.054.027-.054m29.432-.055v.246h-.082l.082-.246m-.082.41-.082.083.082-.082m-29.432.219-.027.054.027-.054m29.35.027-.082.082.082-.082m-.11.301-.027.055.028-.055m-.055.274-.082.082.082-.082m-.082.246-.083.082.083-.082m-29.159.329-.082.082.082-.082m28.994.082v.246h-.082l.082-.246m-28.912.246v.247h-.082l.082-.247m28.83.165-.082.082.082-.082m-28.747.246-.083.082.083-.082m28.665 0-.082.082.082-.082m-.11.302-.027.054.028-.054m-28.474.027-.082.082.082-.082m.082.246-.082.082.082-.082m28.337 0-.082.082.082-.082m-28.255.164-.082.082.082-.082m28.173.082-.083.082.083-.082m-28.09.082-.083.083.082-.083m.082.165-.082.082.082-.082m27.926 0-.082.082.082-.082M62.895 112l-.082.082.082-.082m27.735.137-.028.054.028-.054m-27.57.11.082.164-.082-.165m27.515.165-.082.082.082-.082m-.082.246-.082.082.082-.082m98.974.082-.986 2.054h.082c.28-.504 1.064-1.475.904-2.054m-99.083.22-.028.054.028-.054m-26.42.19-.083.083.082-.082m26.366.082-.082.082.082-.082m-.082.246-.083.083.083-.083m-.11.302-.028.054.028-.054m-.082.246-.028.054.028-.054M90 114.3l-.082.082.082-.082m-.082.246-.082.082.082-.082m-.11.302-.027.054.028-.054m-19.357.191-.082.082.082-.082m19.302.082-.082.082.082-.082m-19.384.164-.082.082.082-.082m117.618 0-.492 1.15h.082l.575-1.15h-.165m-98.316.082-.083.083.083-.083m-19.384.165-.083.082.083-.082m19.274.137-.028.054.028-.054m-.082.246-.028.054.028-.054m-19.384.165-.028.054.028-.054m19.33.109-.083.082.082-.082m-19.384.164-.082.082.082-.082m-.082.246-.082.083.082-.083m19.302 0v.247h-.082l.082-.247m-19.384.247-.082.082.082-.082m19.302.164-.082.082.082-.082m-19.412.137-.027.055.027-.055m117.318-.055.082.082-.082-.082m-97.988.165-.082.082.082-.082m97.906 0-.082.164.082-.164m-117.29.164-.083.082.083-.082m19.274.137-.028.054.028-.054m-19.357.11-.082.081.082-.082m19.275.137-.028.055.028-.055m-.055.274-.082.082.082-.082m-19.411.137-.028.054.028-.054m-.055.274-.082.082.082-.082m19.302 0v.246h-.082l.082-.246m-19.384.246-.082.082.082-.082m19.302.164-.082.082.082-.082m-19.384.082-.082.083.082-.083m19.302.165-.082.082.082-.082m-19.412.137-.027.054.027-.054m19.302.164-.027.054.027-.054m-19.357.11-.082.081.082-.082m19.302.165-.082.082.082-.082m-19.384.082-.082.082.082-.082m19.302.164-.082.082.082-.082m-19.384.082-.082.082.082-.082m19.302.164-.082.082.082-.082m-19.411.138-.028.054.028-.054m117.07-.055-.246.328.247-.328m-97.742.082v.246h-.082l.082-.246m-19.384.246-.082.082.082-.082m19.302.164-.082.082.082-.082m-19.384.082-.082.083.082-.083m19.302.165-.082.082.082-.082m-19.384.082-.082.082.082-.082m19.275.22-.028.053.028-.054m-19.385.082-.027.054.027-.054m19.33.192-.083.082.082-.082m-19.384.082-.082.082.082-.082m19.302.164-.082.082.082-.082m-19.384.082-.082.082.082-.082m19.22.329v.246h-.082l.082-.246m96.838.082-.246.328.246-.328m-116.25.137-.027.054.028-.054m19.329.191-.082.082.082-.082m-19.384.082-.082.082.082-.082m19.302.165-.082.082.082-.082m-19.384.082-.082.082.082-.082m19.275.219-.028.054.028-.054m-19.467.329-.027.054.027-.054m19.412-.055-.083.082.083-.082m-.083.246-.082.082.082-.082m-19.384.082-.082.082.082-.082m19.302.164-.082.082.082-.082m-19.384.082-.082.083.082-.083m19.302.083-.082.082.082-.082m-39.425.082.082.164-.082-.164m20.041.082-.082.082.082-.082m19.384 0-.082.082.082-.082m-19.493.301-.028.054.028-.054m19.411-.055-.082.082.082-.082m-39.015.082.083.165-.083-.165m38.933.165-.082.082.082-.082m-19.384.082-.082.082.082-.082m-19.22.164.164.246-.164-.246m38.495.055-.028.054.028-.054m-19.357.027-.083.082.083-.082m19.302.246-.083.083.083-.083m-19.494.302-.027.054.027-.054m19.411-.055-.082.082.082-.082m-19.466.328-.082.083.082-.083m19.275.22-.028.054.028-.054m-19.357.027-.082.082.082-.082m19.302.246-.082.082.082-.082m-36.633.082.165.247-.165-.247m17.14.22-.028.054.027-.054m19.303.246-.028.054.028-.054m-35.867.027-.082.082.082-.082m16.51 0-.082.082.082-.082m-16.181.247.082.164-.082-.164m16.099 0-.083.082.083-.082m19.384 0-.083.082.083-.082m-35.155.246-.082.082.082-.082m15.688 0-.082.082.082-.082m19.384 0-.082.082.082-.082m-34.825.164-.082.082.082-.082m15.332.137-.028.055.028-.055m19.384 0-.028.055.028-.055m-34.47.027-.082.083.082-.083m.247.165-.082.082.082-.082m34.141.055-.028.054.028-.054m-33.977.027-.082.082.082-.082m14.62 0-.082.082.082-.082m-14.21.246-.082.082.083-.082m14.127 0-.082.082.082-.082m19.384 0-.082.082.082-.082m-33.183.247-.246-.082.246.082m125.175-.082-.082.164.082-.164m-125.01.082-.083.082.082-.082m32.937 0-.082.082.082-.082m-32.772.082-.082.082.082-.082m.328.246-.246-.082.246.082m12.95-.027-.027.054.027-.054m19.385 0-.028.054.028-.054m-32.17.027-.083.082.083-.082m.246.082-.082.082.082-.082m12.485.165-.083.082.083-.082m19.384 0-.082.082.082-.082m-31.294.082-.082.082.082-.082m.246.082-.082.082.082-.082m.165.082-.083.082.083-.082m11.416 0-.082.082.082-.082m19.385 0-.083.082.083-.082m-30.555.082-.082.082.082-.082m.246.082-.082.082.082-.082m.329.082-.082.082.082-.082m29.87.055-.028.054.028-.054m-29.624.027-.082.082.082-.082m.329.082-.082.082.082-.082m.246.082-.082.083.082-.083m9.583.055-.028.055.028-.055m19.384 0-.028.055.028-.055m-28.556.028-.082.082.082-.082m.164 0-.082.082.082-.082m.164.109c.064 0 .014.04-.027.028l.027-.028m.411.082c.064 0 .013.041-.027.028l.027-.028m.493.055-.082.082.082-.082m7.72 0v.082h-.246l.247-.082m19.548 0-.082.082.082-.082m-26.53.082v.082h-.328l.328-.082m.164 0-.082.082.082-.082m6.243 0v.082h-.247l.247-.082m5.42 0-.081.082.082-.082m-11.335.11c.064 0 .013.04-.027.027l.027-.028m4.764-.027-.082.082.082-.082m.41 0v.082h-.246l.247-.082m-4.025.082v.082h-.329l.329-.082m.164 0-.082.082.082-.082m3.04 0v.082h-.493l.492-.082m112.527.164-.247.247.247-.247m-10.925 7.146.083.082-.083-.082m-2.3 1.725v.082l-.574.165c.065-.306.299-.247.575-.247m-8.542 4.19-.165.163v-.164h.165m-6.9 1.89.082.081-.082-.082m-3.285 1.396.082.083-.082-.083m-2.71 1.233v.082h-.247l.246-.082m-79.343 1.232v.082l.493.082-.493-.164m.821.574-.082.083.082-.083m.329.11.027.028c-.04.013-.09-.028-.027-.028m61.848 1.697-.082.083.082-.083M76.366 152v.082h.246l-.246-.082m1.725.657-.083.082.083-.082m2.381.164-.082.082.082-.082m1.972 0 .082.082-.082-.082m10.431.575v.082h.329l-.329-.082m.41 0 .083.082-.082-.082m-8.953.082-.082.082z"
                    style="fill: rgb(255, 255, 255); stroke: none; stroke-width: 0.0821357;"></path>
            </svg>
